<svg width="135" height="19" viewBox="0 0 135 19" fill="none" xmlns="http://www.w3.org/2000/svg">
<path d="M3.41016 0.9375L6.64453 7.47656L9.85547 0.9375H12.3633L7.92188 9.38672L12.457 18H9.92578L6.64453 11.332L3.35156 18H0.808594L5.35547 9.38672L0.902344 0.9375H3.41016ZM20.5664 0.9375V18H18.4336V0.9375H20.5664ZM25.0547 0.9375V2.78906H13.957V0.9375H25.0547ZM27.5859 0.9375H32.3555C33.4648 0.9375 34.3945 1.13281 35.1445 1.52344C35.9023 1.91406 36.4727 2.49219 36.8555 3.25781C37.2461 4.01562 37.4414 4.94922 37.4414 6.05859C37.4414 6.83984 37.3125 7.55469 37.0547 8.20312C36.7969 8.84375 36.4219 9.39062 35.9297 9.84375C35.4375 10.2891 34.8398 10.6211 34.1367 10.8398L33.5508 11.0859H29.2969L29.2734 9.24609H32.332C32.9883 9.24609 33.5352 9.10547 33.9727 8.82422C34.4102 8.53516 34.7383 8.14844 34.957 7.66406C35.1758 7.17969 35.2852 6.64453 35.2852 6.05859C35.2852 5.40234 35.1875 4.82812 34.9922 4.33594C34.7969 3.84375 34.4844 3.46484 34.0547 3.19922C33.6328 2.92578 33.0664 2.78906 32.3555 2.78906H29.7422V18H27.5859V0.9375ZM35.7773 18L32.3789 10.2656L34.6172 10.2539L38.0859 17.8594V18H35.7773ZM49.5 16.1602V18H42.0938V16.1602H49.5ZM42.4805 0.9375V18H40.3242V0.9375H42.4805ZM48.5039 8.27344V10.1133H42.0938V8.27344H48.5039ZM49.3828 0.9375V2.78906H42.0938V0.9375H49.3828ZM52.9336 0.9375H55.0195L59.4844 14.8477L63.9375 0.9375H66.0234L60.293 18H58.6523L52.9336 0.9375ZM52.2539 0.9375H54.082L54.3984 11.3438V18H52.2539V0.9375ZM64.8633 0.9375H66.6914V18H64.5469V11.3438L64.8633 0.9375ZM79.5703 16.1602V18H72.1641V16.1602H79.5703ZM72.5508 0.9375V18H70.3945V0.9375H72.5508ZM78.5742 8.27344V10.1133H72.1641V8.27344H78.5742ZM79.4531 0.9375V2.78906H72.1641V0.9375H79.4531ZM89.8008 12.2695H93.5039C93.4805 13.5508 93.2266 14.6367 92.7422 15.5273C92.2578 16.418 91.5703 17.0938 90.6797 17.5547C89.7891 18.0078 88.7344 18.2344 87.5156 18.2344C86.5469 18.2344 85.6875 18.0703 84.9375 17.7422C84.1875 17.4062 83.5508 16.9219 83.0273 16.2891C82.5117 15.6562 82.1211 14.8789 81.8555 13.957C81.5977 13.0352 81.4688 11.9805 81.4688 10.793V8.14453C81.4688 6.96484 81.6094 5.91016 81.8906 4.98047C82.1719 4.05078 82.5703 3.26953 83.0859 2.63672C83.6094 1.99609 84.2461 1.51172 84.9961 1.18359C85.7461 0.855469 86.5859 0.691406 87.5156 0.691406C88.7891 0.691406 89.8594 0.929687 90.7266 1.40625C91.5938 1.88281 92.2617 2.57422 92.7305 3.48047C93.1992 4.38672 93.4648 5.48438 93.5273 6.77344H89.8125C89.8203 5.99219 89.75 5.38281 89.6016 4.94531C89.4609 4.5 89.2227 4.1875 88.8867 4.00781C88.5508 3.82031 88.0938 3.72656 87.5156 3.72656C87.1016 3.72656 86.7461 3.80469 86.4492 3.96094C86.1523 4.10938 85.9141 4.35547 85.7344 4.69922C85.5547 5.04297 85.4219 5.49609 85.3359 6.05859C85.25 6.62109 85.207 7.30859 85.207 8.12109V10.793C85.207 11.6055 85.2422 12.293 85.3125 12.8555C85.3828 13.4102 85.5039 13.8633 85.6758 14.2148C85.8477 14.5586 86.082 14.8086 86.3789 14.9648C86.6758 15.1211 87.0547 15.1992 87.5156 15.1992C88.0312 15.1992 88.457 15.1211 88.793 14.9648C89.1289 14.8008 89.3789 14.5078 89.543 14.0859C89.7148 13.6641 89.8008 13.0586 89.8008 12.2695ZM101.777 4.25391L98.3555 18H94.3828L99.6914 0.9375H102.164L101.777 4.25391ZM104.473 18L101.039 4.25391L100.594 0.9375H103.113L108.445 18H104.473ZM104.602 11.6367V14.6484H97.043V11.6367H104.602ZM109.91 0.9375H115.57C116.711 0.9375 117.691 1.13281 118.512 1.52344C119.332 1.91406 119.961 2.49219 120.398 3.25781C120.844 4.02344 121.066 4.96875 121.066 6.09375C121.066 7.04688 120.941 7.85156 120.691 8.50781C120.441 9.15625 120.09 9.69531 119.637 10.125C119.184 10.5547 118.648 10.9023 118.031 11.168L116.848 11.8594H112.336L112.324 8.84766H115.477C115.898 8.84766 116.246 8.75 116.52 8.55469C116.793 8.35938 116.996 8.08203 117.129 7.72266C117.27 7.35547 117.34 6.92188 117.34 6.42188C117.34 5.90625 117.273 5.46484 117.141 5.09766C117.016 4.73047 116.824 4.44922 116.566 4.25391C116.316 4.05859 115.984 3.96094 115.57 3.96094H113.637V18H109.91V0.9375ZM117.574 18L114.492 10.418L118.406 10.4062L121.559 17.8242V18H117.574ZM130.547 13.4883C130.547 13.1992 130.52 12.9414 130.465 12.7148C130.41 12.4805 130.305 12.2656 130.148 12.0703C129.992 11.8672 129.758 11.6641 129.445 11.4609C129.133 11.2578 128.723 11.0469 128.215 10.8281C127.59 10.5703 126.98 10.2891 126.387 9.98438C125.801 9.67188 125.273 9.3125 124.805 8.90625C124.336 8.49219 123.961 8.00781 123.68 7.45312C123.398 6.89062 123.258 6.23438 123.258 5.48438C123.258 4.75781 123.395 4.10156 123.668 3.51562C123.941 2.92187 124.324 2.41797 124.816 2.00391C125.309 1.58203 125.891 1.26172 126.562 1.04297C127.234 0.816406 127.973 0.703125 128.777 0.703125C129.863 0.703125 130.812 0.925781 131.625 1.37109C132.438 1.80859 133.07 2.42578 133.523 3.22266C133.977 4.01172 134.203 4.93359 134.203 5.98828H130.5C130.5 5.52734 130.438 5.125 130.312 4.78125C130.188 4.42969 129.992 4.15625 129.727 3.96094C129.469 3.75781 129.129 3.65625 128.707 3.65625C128.316 3.65625 127.992 3.73828 127.734 3.90234C127.477 4.06641 127.285 4.28906 127.16 4.57031C127.035 4.85156 126.973 5.16406 126.973 5.50781C126.973 5.78125 127.035 6.02344 127.16 6.23438C127.293 6.44531 127.469 6.64062 127.688 6.82031C127.914 7 128.18 7.17188 128.484 7.33594C128.797 7.5 129.133 7.65625 129.492 7.80469C130.258 8.10938 130.938 8.44141 131.531 8.80078C132.133 9.16016 132.633 9.56641 133.031 10.0195C133.438 10.4648 133.742 10.9727 133.945 11.543C134.156 12.1055 134.262 12.7461 134.262 13.4648C134.262 14.1992 134.137 14.8633 133.887 15.457C133.637 16.043 133.277 16.543 132.809 16.957C132.348 17.3711 131.785 17.6875 131.121 17.9062C130.457 18.125 129.715 18.2344 128.895 18.2344C128.121 18.2344 127.375 18.125 126.656 17.9062C125.938 17.6797 125.297 17.3359 124.734 16.875C124.18 16.4141 123.738 15.8242 123.41 15.1055C123.082 14.3867 122.918 13.5312 122.918 12.5391H126.645C126.645 13.0469 126.688 13.4805 126.773 13.8398C126.867 14.1914 127.008 14.4727 127.195 14.6836C127.391 14.8945 127.629 15.0508 127.91 15.1523C128.199 15.2461 128.543 15.293 128.941 15.293C129.348 15.293 129.668 15.2109 129.902 15.0469C130.137 14.8828 130.301 14.668 130.395 14.4023C130.496 14.1289 130.547 13.8242 130.547 13.4883Z" fill="white"/>
</svg>
