<svg width="48" height="168" viewBox="0 0 48 168" fill="none" xmlns="http://www.w3.org/2000/svg">
<path d="M24 0C10.7581 0 0 10.7753 0 24.0384C0 36.0785 8.8664 46.0427 20.4141 47.7802L21.6669 47.9701V29.0279H15.9972V25.1823H21.6669V20.0754C21.6669 16.9307 22.4203 14.8595 23.6676 13.56C24.9149 12.2606 26.7578 11.6052 29.3224 11.6052C31.3731 11.6052 32.1709 11.7296 32.9297 11.8229V14.9707H30.2599C28.7451 14.9707 27.5023 15.8172 26.8572 16.9447C26.2122 18.0722 26.0114 19.4185 26.0114 20.7903V25.1802H32.6911L32.0966 29.0258H26.0114V48L27.2493 47.8314C38.9611 46.2405 48 36.1962 48 24.0384C48 10.7753 37.2419 0 24 0ZM24 2.18531C36.0628 2.18531 45.8182 11.9563 45.8182 24.0384C45.8182 34.6697 38.2209 43.4132 28.1932 45.3815V31.2111H33.9673L35.2351 22.9948H28.1932V20.7903C28.1932 19.6567 28.4003 18.641 28.7493 18.0309C29.0983 17.4209 29.4348 17.156 30.2599 17.156H35.1115V9.84457L34.1655 9.71652C33.5112 9.62784 32.0173 9.41988 29.3224 9.41988C26.3736 9.41988 23.8424 10.2245 22.0952 12.0448C20.3479 13.8652 19.4851 16.5757 19.4851 20.0754V22.997H13.8153V31.2132H19.4851V45.3132C9.61854 43.2198 2.18182 34.5546 2.18182 24.0384C2.18182 11.9563 11.9372 2.18531 24 2.18531Z" fill="white"/>
<g clip-path="url(#clip0_9004_266)">
<path d="M32.8499 65.25C27.1087 65.25 22.4399 69.9187 22.4399 75.66C22.4399 76.005 22.5262 76.3425 22.5599 76.68C15.4612 76.0013 9.18367 72.5813 4.91992 67.35C4.72117 67.0987 4.41367 66.9637 4.09118 66.9863C3.77243 67.0087 3.48743 67.1925 3.32992 67.47C2.43367 69.0113 1.91992 70.785 1.91992 72.69C1.91992 74.9963 2.74492 77.1075 4.01992 78.84C3.77242 78.7312 3.50242 78.6713 3.26992 78.54C2.97367 78.3825 2.61742 78.39 2.32867 78.5625C2.03992 78.735 1.86367 79.0463 1.85992 79.38V79.5C1.85992 83.0362 3.68992 86.1075 6.38993 87.99C6.35992 87.9862 6.32992 87.9975 6.29992 87.99C5.96992 87.9338 5.63618 88.05 5.41492 88.3012C5.19367 88.5525 5.12243 88.9012 5.21992 89.22C6.29243 92.5537 9.02992 95.1 12.4199 96.03C9.71992 97.635 6.58867 98.58 3.20992 98.58C2.47867 98.58 1.77742 98.5425 1.07992 98.46C0.629924 98.4 0.198674 98.6625 0.0486741 99.09C-0.105076 99.5175 0.0636741 99.9937 0.449924 100.23C4.78118 103.009 9.92243 104.64 15.4499 104.64C24.4087 104.64 31.4362 100.897 36.1499 95.55C40.8637 90.2025 43.3199 83.2575 43.3199 76.77C43.3199 76.4963 43.2974 76.23 43.2899 75.96C45.0487 74.6137 46.6199 73.035 47.8499 71.19C48.0937 70.8337 48.0674 70.3575 47.7862 70.0275C47.5087 69.6975 47.0399 69.5963 46.6499 69.78C46.1549 70.0013 45.5774 70.0237 45.0599 70.2C45.7424 69.2887 46.3274 68.3063 46.6799 67.2C46.7999 66.8213 46.6687 66.405 46.3574 66.1575C46.0462 65.9137 45.6112 65.8837 45.2699 66.09C43.6312 67.0613 41.8162 67.7437 39.8999 68.16C38.0399 66.42 35.5912 65.25 32.8499 65.25ZM32.8499 67.17C35.2987 67.17 37.5112 68.2163 39.0599 69.87C39.2924 70.11 39.6337 70.2113 39.9599 70.14C41.2124 69.8925 42.4012 69.5287 43.5599 69.06C42.8924 69.96 42.0674 70.7287 41.0999 71.31C40.6612 71.5237 40.4549 72.03 40.6162 72.4913C40.7737 72.9487 41.2537 73.215 41.7299 73.11C42.6899 72.9937 43.5449 72.6037 44.4599 72.36C43.6387 73.2487 42.7387 74.0513 41.7599 74.76C41.4937 74.955 41.3474 75.27 41.3699 75.6C41.3849 75.99 41.3999 76.3763 41.3999 76.77C41.3999 82.77 39.0974 89.2837 34.7099 94.26C30.3224 99.2362 23.8799 102.72 15.4499 102.72C11.6212 102.72 8.00618 101.873 4.73992 100.38C8.78992 100.069 12.5249 98.6362 15.5399 96.27C15.8549 96.0187 15.9787 95.5987 15.8512 95.2162C15.7237 94.8337 15.3712 94.5712 14.9699 94.56C11.8049 94.5037 9.15367 92.6625 7.73992 90.06C7.79243 90.06 7.83742 90.06 7.88992 90.06C8.83867 90.06 9.77617 89.94 10.6499 89.7C11.0699 89.5763 11.3587 89.1862 11.3437 88.7475C11.3287 88.3087 11.0174 87.9338 10.5899 87.84C7.17367 87.15 4.61243 84.3675 4.01992 80.91C4.98743 81.2437 5.97743 81.5063 7.04992 81.54C7.48867 81.5662 7.88617 81.2925 8.02117 80.8762C8.15617 80.46 7.99118 80.0025 7.61993 79.77C5.33992 78.2437 3.83992 75.645 3.83992 72.69C3.83992 71.595 4.12492 70.59 4.49992 69.63C9.29992 74.8987 16.0199 78.3975 23.6099 78.78C23.9099 78.795 24.2024 78.6712 24.3974 78.4425C24.5924 78.21 24.6674 77.9025 24.5999 77.61C24.4537 76.9875 24.3599 76.3275 24.3599 75.66C24.3599 70.9575 28.1474 67.17 32.8499 67.17Z" fill="white"/>
</g>
<path d="M14.1818 120C6.36271 120 0 126.363 0 134.182V153.818C0 161.637 6.36271 168 14.1818 168H33.8182C41.6373 168 48 161.637 48 153.818V134.182C48 126.363 41.6373 120 33.8182 120H14.1818ZM14.1818 122.182H33.8182C40.458 122.182 45.8182 127.542 45.8182 134.182V153.818C45.8182 160.458 40.458 165.818 33.8182 165.818H14.1818C7.54202 165.818 2.18182 160.458 2.18182 153.818V134.182C2.18182 127.542 7.54202 122.182 14.1818 122.182ZM37.0909 128.727C36.5123 128.727 35.9573 128.957 35.5481 129.366C35.139 129.775 34.9091 130.33 34.9091 130.909C34.9091 131.488 35.139 132.043 35.5481 132.452C35.9573 132.861 36.5123 133.091 37.0909 133.091C37.6696 133.091 38.2245 132.861 38.6337 132.452C39.0429 132.043 39.2727 131.488 39.2727 130.909C39.2727 130.33 39.0429 129.775 38.6337 129.366C38.2245 128.957 37.6696 128.727 37.0909 128.727ZM24 132C17.3855 132 12 137.386 12 144C12 150.614 17.3855 156 24 156C30.6145 156 36 150.614 36 144C36 137.386 30.6145 132 24 132ZM24 134.182C29.4354 134.182 33.8182 138.565 33.8182 144C33.8182 149.435 29.4354 153.818 24 153.818C18.5646 153.818 14.1818 149.435 14.1818 144C14.1818 138.565 18.5646 134.182 24 134.182Z" fill="white"/>
<defs>
<clipPath id="clip0_9004_266">
<rect width="48" height="48" fill="white" transform="translate(0 60)"/>
</clipPath>
</defs>
</svg>
